<svg version="1" xmlns="http://www.w3.org/2000/svg" width="933.333" height="933.333" viewBox="0 0 700.000000 700.000000"><path d="M323.7 1.1c-81 6.7-160.5 49.8-211.1 114.4-12.5 15.9-33.6 50.1-33.6 54.4 0 1.1 24.9 1.2 153.7.6l153.6-.8 3.5-2.3c4.3-2.9 11-3.1 16.7-.5 2.2 1 7.3 4.2 11.2 7 4 2.9 9.1 5.9 11.5 6.5l4.3 1.3-5.5.6c-3 .4-8.4 1-11.8 1.3l-6.4.7 1.7-3.4 1.7-3.4-3.1 2.9c-2.3 2.2-3.2 4.2-3.7 7.8l-.7 4.8-13.1-.1c-7.2-.1-20.1-.4-28.6-.8l-15.5-.6-1-7-1-7-4 .3c-2.2.1-41.9 3.4-88.2 7.2l-84.1 7H69.1l-1.9 5.3c-6.5 17.2-12 38.9-15.3 60.7-2 12.5-2.3 18.4-2.3 43 0 32.2 1.4 45.1 8 71.8 17.8 72.9 62.2 136.6 124 178l9.1 6.1 3.8-2.6c4.3-2.9 34.1-18.3 35.5-18.3.5 0 .7.7.4 1.5-.3.8 1.5 5.2 4 9.9 2.5 4.6 4.6 8.8 4.6 9.3 0 .4-5.1 2.3-11.3 4.2-39.2 11.7-76.3 32.6-103.1 58-5.9 5.6-23.2 26.1-26.4 31.3-1.3 2.1-2.6 3.8-2.8 3.8-.3 0-.2-.6.2-1.2 4-6.6 8.8-13.8 14.6-21.6 4.5-6.1 6.3-9.2 5.2-9.2-3.7 0-22.8 4.5-32.9 7.7-36.4 11.7-63.2 33.6-78.4 64L1 700h698l-3.1-6.3c-15.2-30.4-42-52.3-78.4-64-10.1-3.2-29.2-7.7-32.9-7.7-1.1 0 .7 3.1 5.2 9.2 5.8 7.8 10.6 15 14.6 21.5.4.7.5 1.3.2 1.3-.2 0-1.5-1.7-2.8-3.8-3.2-5.2-20.5-25.7-26.4-31.3-36.4-34.5-87.6-58.3-146.9-68.3-30.1-5.1-68.1-7.2-100.7-5.6-31 1.5-51.6 4.2-81.7 10.8-2.2.5-2.3.3-1.6-3.9.6-3.5 1.9-5.7 6.9-10.8l6.1-6.5-4-1.7c-2.2-1-4.9-2.1-6-2.4-2.4-.8 3.3-3 20.8-8 25.8-7.4 51.1-10.8 81.2-10.9 43.2 0 79.6 7.2 118.5 23.6 10.1 4.2 32.2 15.6 37.9 19.4l3.4 2.3 9.1-6.1c8.4-5.7 20.4-14.7 28.4-21.5l3.2-2.8-92.2-55.6c-77.4-46.7-92.4-56-92.6-58-.7-5.4-2.4-10-4.6-12.6l-2.3-2.8 43.5-72.2 43.6-72.2 3.6 2.2c2 1.2 36.1 21.8 75.7 45.7l72.1 43.5 24.3 42.5c31.1 54.4 34.2 59.6 34.6 58.5.3-1.2 5.3-34.4 9.8-66 1.9-13.2 7.7-53.5 13-89.5 5.2-36 9.4-66.1 9.3-66.8-.2-.8-12.1-6.2-26.6-12.1-14.4-5.9-26.7-11.2-27.1-11.7-.5-.5-3-6.1-5.6-12.4-10.2-25.1-26-52-43.5-74-10.7-13.5-33.5-36.3-47-47C477.1 17.6 401.3-5.3 323.7 1.1zm65 53.1c-.3.8-.6.5-.6-.6-.1-1.1.2-1.7.5-1.3.3.3.4 1.2.1 1.9zm-6.2 4.4c-1.4 2.5-6.1 10.3-10.4 17.5L364.3 89l-3.3-7.5c-1.8-4.2-3.4-7.4-3.6-7.3-.1.2.8 4.6 2 9.8l2.2 9.5-2.5 4.2c-1.4 2.4-2.8 4.3-3.1 4.3-.3 0-2.3-3.6-4.5-8-2.1-4.4-4-7.8-4.2-7.6-.2.2.7 5.5 2.1 11.7l2.5 11.4-2.9 4.9-2.8 4.9-4.1-7.9c-2.2-4.3-4-7.5-4-6.9 0 .5 1 5.3 2.4 10.5l2.4 9.5-4.2 7.2c-2.3 4-4.5 7.3-4.8 7.3-1 0-11.8-23.4-12.8-28-2.6-11.2-.4-21.2 6.7-30.5 6.6-8.8 14.3-12.8 35.6-18.6 6.1-1.7 13.4-4.1 16.1-5.4 2.8-1.3 5.2-2.4 5.3-2.4.2-.1-.8 1.9-2.3 4.5zm-32.2 82.1c-2.3.2-6.4.2-9 0-2.6-.2-.7-.3 4.2-.3 5 0 7.1.1 4.8.3zm-106 4.3c-.3 1.1-.9 1.7-1.4 1.4-.5-.3-.9.8-.9 2.5 0 3.1-1.5 5-2.3 2.9-.3-.7-.3.4 0 2.4.3 2.2.1 3.8-.4 3.8-.6 0-1.3 1.8-1.7 4-.7 4.7-1.7 5-4.1 1.4-5-7.6-3.5-13.8 4.2-17.8 5.9-3.1 7.3-3.2 6.6-.6zM430 186.3c0 .2-1 1.2-2.2 2.3l-2.3 1.9 1.9-2.3c1.8-2.1 2.6-2.7 2.6-1.9zm-5 5c0 .2-1.9 2.1-4.2 4.2l-4.3 4 4-4.3c3.6-3.9 4.5-4.7 4.5-3.9zM372 305v11h-23.2c-19.7-.1-35.7-1.1-104.5-6.8l-81.2-6.7-1 5.9c-.8 4.6-.8 6.2.2 6.8.6.4-7.5.8-18 .8H125v-22h247v11zm-163.5 29.6c34.2 1.3 105.8 6.4 106.9 7.5.2.2-.1 2.9-.7 6l-1 5.6-4.3-.5c-4.4-.5-4.4-.4-4.4 2.7v3.1l-6.7.1-6.8.2 8.9.8c4.9.5 9.1 1 9.3 1.2.2.2-.2 2.7-.8 5.5-1 4.8-1.2 5.1-3.7 4.7-1.5-.3-34.2-3-72.7-6-38.5-3.1-71-5.8-72.3-6.1-1.9-.4-2.3-1-2-3.2l.3-2.7-9.3-.3-9.3-.3.3-6.2.3-6.2 7.5-.5c6.5-.4 7.5-.8 7.8-2.5.7-4.2 1.1-4.5 6.9-4.5 3.2 0 23.8.7 45.8 1.6zm77.9 58.1c.9 2.6 1.6 5 1.6 5.4 0 .4-11.2 2.8-25 5.5-13.7 2.6-24.8 4.9-24.6 5.1.2.2 12.6-1.4 27.5-3.6 14.9-2.3 28-4.1 29-4.1 1.5 0 2.2 1.1 2.9 4.7.6 2.6.9 4.9.7 5.2-1 1-24.6 4.6-95.9 14.6-26.9 3.8-26.6 3.8-26.6-1.8 0-2.9 0-2.9-4.9-2.2l-4.9.7-.7-5.2c-.4-2.8-.5-5.2-.4-5.4 1.2-.8 113.3-23.3 117.1-23.5 2.3-.1 2.8.5 4.2 4.6zm39.4 9l9.7 5.6-4 1.8c-4.7 2.1-4.1 2.3 2.1.8 3.7-1 4.8-.9 7.1.6l2.7 1.8-4.5 2.3c-5.1 2.7-4.4 2.9 3 .9 4.8-1.2 5.6-1.2 7.9.3l2.5 1.6-3.9 1.8c-4.5 2-4 2.2 2.1.7 3.9-1 4.7-.9 8.9 1.6 2.5 1.5 4.6 3.1 4.6 3.5 0 .4-3.5 2.3-7.7 4.1-18.2 7.7-28.3 2.4-34.8-18.2-1.4-4.6-3.5-9.9-4.5-11.7-1.1-1.7-1.7-3.2-1.4-3.2.3 0 4.9 2.6 10.2 5.7zM252.6 465c29.3 2.8 53.5 5 53.8 5 .3 0 .6 1.3.6 3 0 3.6 0 3.6 5 1 4.5-2.3 5-1.5 2.8 3.7-1.7 3.8-1.8 3.9-2.8 2.3-.6-1-.7-.2-.3 2.2.5 3.7-.8 5.3-2.1 2.5-.3-.6-.3.3 0 2 .6 3.8-.4 6.2-1.8 4.2-.6-.9-.7-.6-.3 1.1.3 1.4.1 3.9-.5 5.5l-1.2 3-2.9-3.5c-1.6-1.9-3.5-5.2-4.1-7.4-1-3.3-.9-4.3.5-6.9 1-1.6 1.6-3.1 1.5-3.3-.6-.5-22-2.5-22.4-2.1-.3.2 2.9 1 7.1 1.7 6.8 1.2 7.5 1.5 7.5 3.6 0 4-.9 5.1-3.8 4.6-1.5-.2-3.2-.9-3.8-1.4-.7-.5-8.5-1.9-17.5-3.2-23.6-3.5-54.9-9.4-58.4-11-1.6-.8-6.5-1.8-10.9-2.1l-7.8-.7.6-3c.3-1.7.6-3.9.6-4.8 0-1.5.7-1.7 3.8-1.4 2 .3 27.6 2.7 56.8 5.4zM227 484.6c15.1 2 40.5 6.4 51.7 8.9 2 .5 2.1.8 1.1 3.5-1.1 3.4-3.7 4-4.5 1-.3-1.1-.9-2-1.4-2-1 0-59.2-8.6-65.1-9.6-2.8-.5-3.8-1.2-3.8-2.5 0-2.4-.3-2.4 22 .7zm2.6 12.4c17.8 2.6 35.4 5.6 44.2 7.7 1.5.4 2.2 1.3 2.2 2.9 0 1.3-.5 2.4-1.1 2.4-1.8 0-69.3-13-69.7-13.5-.7-.7.9-2.5 2.2-2.5.8 0 10.8 1.4 22.2 3z"/><path d="M233.8 409.7c.7.3 1.6.2 1.9-.1.4-.3-.2-.6-1.3-.5-1.1 0-1.4.3-.6.6zM458.9 307.9c-4.4 1.4-6.9 3.1-6.9 4.8 0 .9 5.7 16.2 12.6 34.2 7 17.9 13 33.5 13.4 34.6.7 1.8.3 2-4.1 2-3.9 0-5.4.5-7.4 2.5-5 5-4.9 12.4.1 17.1 2 1.9 3.6 2.4 7.6 2.4 4.3 0 5.3-.4 7.8-3.2l2.8-3.1 2.3 5.9c1.2 3.3 2.5 5.7 2.9 5.2.4-.4 8.3-13.4 17.4-28.8 10.3-17.2 16.6-28.9 16.6-30.6 0-5.2-4-8.8-21.5-19.6-27.7-17.1-39.7-24.3-40.4-24.2-.3 0-1.8.4-3.2.8zM544.2 365.5c-1.6 1.3-5.9 7.4-9.5 13.5-6.6 11-6.6 11-4.4 12.4 5 3.2 29 17.6 29.3 17.6.5 0 18.4-30.1 18.4-31 0-.5-5.3-4.1-11.8-8-13.4-8-17-8.7-22-4.5zM578 399.1c-7.4 12.4-8.9 15.4-7.8 16.4 1.8 1.7 30 18.7 30.3 18.3.1-.2 3.4-5.7 7.3-12.3 7.9-13.3 8.8-17.2 5.2-21.8-2-2.5-22.8-15.7-24.8-15.7-.5 0-5.1 6.8-10.2 15.1zM515.3 410.7c-8.4 14.5-8.4 14.4-7.2 18.5 1.2 4.5 4.4 7.3 16.6 14.6l10.2 6.1 9.6-15.7c8.8-14.5 9.4-15.8 7.8-17-1.4-1.1-26.9-16.5-29.5-17.9-.3-.1-3.7 5-7.5 11.4zM560.7 427.7c-8.5 13.6-16.8 27.6-16.5 27.8.2.2 5.6 3.5 12.1 7.4 13.1 7.9 17.2 8.8 22 5.1 2.5-2 15.7-22.8 15.7-24.7 0-.5-5.1-3.9-11.2-7.6-6.2-3.7-13.2-7.8-15.5-9.2l-4.2-2.6-2.4 3.8z"/></svg>