<?xml version="1.0" encoding="iso-8859-1"?>
<!-- Generator: Adobe Illustrator 19.0.0, SVG Export Plug-In . SVG Version: 6.00 Build 0)  -->
<svg version="1.1" id="Layer_1" xmlns="http://www.w3.org/2000/svg" xmlns:xlink="http://www.w3.org/1999/xlink" x="0px" y="0px"
	 viewBox="0 0 496.8 496.8" style="enable-background:new 0 0 496.8 496.8;" xml:space="preserve">
<circle style="fill:#063F66;" cx="248.4" cy="213.6" r="213.6"/>
<path style="fill:#022730;" d="M399.6,364.8c-83.2,83.2-219.2,83.2-302.4,0S14,145.6,97.2,62.4"/>
<path style="fill:#3E9904;" d="M496.4,496.8c-36.8-80-142.4-55.2-248-55.2s-211.2-24.8-248,55.2H496.4z"/>
<path style="fill:#82C60A;" d="M446,496.8c-31.2-80-108-134.4-197.6-134.4S82,416.8,50.8,496.8H446z"/>
<path style="fill:#74B208;" d="M446,496.8c-31.2-80-108-110.4-197.6-110.4S82,416.8,50.8,496.8H446z"/>
<rect x="269.396" y="219.088" transform="matrix(-0.8563 -0.5164 0.5164 -0.8563 529.1286 713.3707)" style="fill:#DDDAC3;" width="188.792" height="127.995"/>
<polyline style="fill:#C9C5AD;" points="316.4,180 478,277.6 411.6,387.2 "/>
<path style="fill:#FCA12A;" d="M325.2,328.8l45.6-76c2.4-3.2,0.8-8-2.4-10.4l-37.6-23.2c-3.2-2.4-8-0.8-10.4,2.4l-45.6,76
	L325.2,328.8z"/>
<path style="fill:#E58613;" d="M347.6,292l23.2-39.2c2.4-3.2,0.8-8-2.4-10.4l-37.6-23.2c-3.2-2.4-8-0.8-10.4,2.4"/>
<circle style="fill:#DB5435;" cx="336.4" cy="280" r="8"/>
<path style="fill:#C43D27;" d="M344.4,277.6c0.8,4-1.6,8-5.6,9.6c-4,1.6-8-1.6-9.6-5.6"/>
<path style="fill:#008AAA;" d="M403.6,294.4L426,308l9.6-16c2.4-3.2,0.8-8-2.4-10.4l-16-9.6L403.6,294.4z"/>
<path style="fill:#00A1AD;" d="M397.2,290.4l13.6-22.4l-16-9.6c-3.2-2.4-8-0.8-10.4,2.4l-9.6,16L397.2,290.4z"/>
<path style="fill:#008AAA;" d="M393.2,296.8l-22.4-13.6l-9.6,16c-2.4,3.2-0.8,8,2.4,10.4l16,9.6L393.2,296.8z"/>
<path style="fill:#00A1AD;" d="M399.6,300.8L386,323.2l16,9.6c3.2,2.4,8,0.8,10.4-2.4l9.6-16L399.6,300.8z"/>
<polygon style="fill:#C43D27;" points="465.2,316.8 488.4,157.6 339.6,96.8 "/>
<polygon style="fill:#AA1E0F;" points="465.2,316.8 488.4,157.6 370,150.4 "/>
<g>
	<polygon style="fill:#C43D27;" points="381.2,113.6 471.6,272 473.2,260 392.4,118.4 	"/>
	<polygon style="fill:#C43D27;" points="426,132 478.8,224.8 480.4,212.8 437.2,136.8 	"/>
</g>
<path style="fill:#82C60A;" d="M276.4,36L276.4,36L276.4,36L276.4,36c-16.8,12-36,4.8-47.2,25.6c-6.4,12,0,24,8,38.4l0,0l0,0l0,0
	c16,0.8,30.4,0,37.6-10.4C288.4,70.4,273.2,56,276.4,36z"/>
<path style="fill:#5EA304;" d="M237.2,99.2L237.2,99.2L237.2,99.2L237.2,99.2c16,0.8,30.4,0,37.6-10.4c12.8-19.2-2.4-32.8,0.8-53.6
	l0,0l0,0l0,0"/>
<g>
	<polygon style="fill:#74B208;" points="258.8,64 253.2,51.2 257.2,68 273.2,64 	"/>
	<polygon style="fill:#74B208;" points="246,85.6 239.6,72.8 243.6,88.8 260.4,84.8 	"/>
	<polygon style="fill:#74B208;" points="253.2,74.4 246,60 250,78.4 269.2,74.4 	"/>
</g>
<path style="fill:#82C60A;" d="M309.2,130.4L309.2,130.4v-1.6l0,0c-11.2,0-16-13.6-28.8-12c-7.2,0.8-8,8.8-16,16.8l0,0l0,0h0.8
	c4.8,7.2,10.4,13.6,17.6,13.6C296.4,147.2,298.8,135.2,309.2,130.4z"/>
<path style="fill:#5EA304;" d="M264.4,133.6L264.4,133.6L264.4,133.6h0.8c4.8,7.2,10.4,13.6,17.6,13.6c12.8,0,14.4-12,24.8-16.8
	v-0.8v-0.8h4.8"/>
<g>
	<polygon style="fill:#74B208;" points="290,132 294,124.8 287.6,132 294.8,138.4 	"/>
	<polygon style="fill:#74B208;" points="276.4,132.8 279.6,125.6 274,132.8 281.2,139.2 	"/>
	<polygon style="fill:#74B208;" points="283.6,132 287.6,124 280.4,132.8 288.4,139.2 	"/>
</g>
<path style="fill:#82C60A;" d="M222.8,280.8L222.8,280.8L222.8,280.8L222.8,280.8c7.2,8,3.2,19.2,15.2,25.6
	c6.4,3.2,13.6-0.8,21.6-4.8l0,0l0,0l0,0c0-8.8,0-16-6.4-20C242,272.8,234,280.8,222.8,280.8z"/>
<path style="fill:#5EA304;" d="M259.6,301.6L259.6,301.6L259.6,301.6L259.6,301.6c0-9.6-0.8-16.8-7.2-20.8c-10.4-8-18.4,0-29.6,0
	l0,0l0,0h1.6"/>
<g>
	<polygon style="fill:#74B208;" points="238.8,288.8 231.6,292 241.2,289.6 238.8,280.8 	"/>
	<polygon style="fill:#74B208;" points="250.8,296 243.6,299.2 253.2,296.8 250.8,288 	"/>
	<polygon style="fill:#74B208;" points="245.2,292 237.2,296 247.6,293.6 244.4,283.2 	"/>
</g>
<path style="fill:#82C60A;" d="M224.4,332.8L224.4,332.8L224.4,332.8L224.4,332.8c0,4.8-9.6,3.2-12.8,10.4c-1.6,4,1.6,8,4.8,12l0,0
	l0,0l0,0c4.8-0.8,8.8-1.6,10.4-5.6C230.8,343.2,224.4,340,224.4,332.8z"/>
<path style="fill:#5EA304;" d="M216.4,357.6L216.4,357.6l0.8-0.8l0,0c4.8-0.8,8.8-1.6,10.4-5.6c3.2-6.4-3.2-11.2-3.2-17.6l0,0l0,0
	v3.2"/>
<g>
	<polygon style="fill:#74B208;" points="222.8,343.2 220.4,339.2 222,344 227.6,342.4 	"/>
	<polygon style="fill:#74B208;" points="219.6,350.4 217.2,346.4 219.6,352 224.4,349.6 	"/>
	<polygon style="fill:#74B208;" points="221.2,346.4 218.8,342.4 220.4,348 226.8,345.6 	"/>
</g>
<path style="fill:#82C60A;" d="M176.4,97.6L176.4,97.6L176.4,97.6L176.4,97.6c0,4.8-10.4,3.2-12.8,10.4c-1.6,4,1.6,8,4.8,12l0,0l0,0
	l0,0c4.8-0.8,8.8-1.6,10.4-5.6C182.8,108,176.4,104,176.4,97.6z"/>
<path style="fill:#5EA304;" d="M167.6,119.2L167.6,119.2L167.6,119.2L167.6,119.2c5.6-0.8,9.6-0.8,11.2-4.8
	c3.2-6.4-3.2-10.4-3.2-16.8l0,0l0,0v-0.8"/>
<g>
	<polygon style="fill:#74B208;" points="174,107.2 171.6,103.2 173.2,108.8 178.8,106.4 	"/>
	<polygon style="fill:#74B208;" points="170.8,114.4 168.4,111.2 170,116 175.6,114.4 	"/>
	<polygon style="fill:#74B208;" points="172.4,111.2 169.2,106.4 171.6,112.8 177.2,110.4 	"/>
</g>
<rect x="24.4" y="120.8" style="fill:#5EE0EA;" width="264" height="16"/>
<g>
	<polygon style="fill:#30B9D8;" points="248.4,140.8 55.6,156.8 53.2,141.6 246,125.6 	"/>
	<polygon style="fill:#30B9D8;" points="254,168 82,182.4 79.6,168.8 252.4,154.4 	"/>
	<polygon style="fill:#30B9D8;" points="251.6,189.6 88.4,203.2 86,190.4 249.2,176.8 	"/>
	<polygon style="fill:#30B9D8;" points="70.8,166.4 264.4,158.4 263.6,144 69.2,152 	"/>
	<polygon style="fill:#30B9D8;" points="92.4,188.8 271.6,180.8 270,167.2 91.6,174.4 	"/>
</g>
<rect x="88.4" y="208.8" style="fill:#5EE0EA;" width="176" height="16"/>
<polygon style="fill:#30B9D8;" points="114,224 240.4,234.4 242,224.8 115.6,214.4 "/>
<g>
	<polygon style="fill:#5EE0EA;" points="110,241.6 222.8,251.2 224.4,242.4 111.6,232.8 	"/>
	<polygon style="fill:#5EE0EA;" points="111.6,255.2 218.8,264 220.4,256 113.2,247.2 	"/>
</g>
<polygon style="fill:#30B9D8;" points="230.8,240.8 102.8,236 103.6,225.6 231.6,231.2 "/>
<polygon style="fill:#5EE0EA;" points="216.4,255.2 98.8,250.4 99.6,240.8 216.4,245.6 "/>
<rect x="102.84" y="275.193" transform="matrix(-0.9957 0.0931 -0.0931 -0.9957 350.3281 545.2392)" style="fill:#30B9D8;" width="119.205" height="11.201"/>
<polygon style="fill:#5EE0EA;" points="204.4,283.2 118,300 116.4,292 202,275.2 "/>
<g>
	<polygon style="fill:#30B9D8;" points="207.6,297.6 131.6,312 130,305.6 206,290.4 	"/>
	<polygon style="fill:#30B9D8;" points="207.6,308.8 134.8,323.2 134,316.8 206,302.4 	"/>
</g>
<polygon style="fill:#5EE0EA;" points="125.2,304.8 212.4,292 210.8,284 124.4,296.8 "/>
<polygon style="fill:#30B9D8;" points="136.4,315.2 216.4,304 214.8,296.8 135.6,308 "/>
<g>
	
		<rect x="135.585" y="329.588" transform="matrix(0.9956 0.0932 -0.0932 0.9956 31.8311 -15.0295)" style="fill:#5EE0EA;" width="82.396" height="7.2"/>
	<polygon style="fill:#5EE0EA;" points="147.6,335.2 207.6,346.4 208.4,340.8 149.2,329.6 	"/>
	<polygon style="fill:#5EE0EA;" points="145.2,344.8 198,355.2 199.6,350.4 146,340 	"/>
	<polygon style="fill:#5EE0EA;" points="145.2,352.8 195.6,362.4 196.4,358.4 146.8,348 	"/>
</g>
<g>
	<polygon style="fill:#30B9D8;" points="202,349.6 142,341.6 142.8,336 202.8,344 	"/>
	<polygon style="fill:#30B9D8;" points="194.8,357.6 139.6,349.6 140.4,344 195.6,352 	"/>
	<polygon style="fill:#30B9D8;" points="187.6,370.4 152.4,367.2 159.6,372.8 169.2,375.2 162.8,381.6 172.4,400 174,388.8 
		182.8,379.2 174,376 	"/>
</g>
<polygon style="fill:#3F9B04;" points="254,496.8 170,400 85.2,496.8 "/>
<g>
</g>
<g>
</g>
<g>
</g>
<g>
</g>
<g>
</g>
<g>
</g>
<g>
</g>
<g>
</g>
<g>
</g>
<g>
</g>
<g>
</g>
<g>
</g>
<g>
</g>
<g>
</g>
<g>
</g>
</svg>
